<svg xmlns="http://www.w3.org/2000/svg" width="161" height="32" fill="none"><path fill="#000" d="M41.395 13.998V.446h11.65v2.668h-8.68v2.962h7.626v2.669h-7.626v5.253h-2.97Zm19.561.188c-2.156 0-4.096-.659-5.462-1.853-1.439-1.258-2.198-3.025-2.198-5.111 0-4.165 3.078-6.964 7.66-6.964 4.582 0 7.642 2.799 7.642 6.964 0 4.165-3.07 6.964-7.642 6.964Zm-.15-11.26c-2.663 0-4.523 1.766-4.523 4.296 0 2.53 1.86 4.296 4.523 4.296h.3c2.652 0 4.505-1.767 4.505-4.296 0-2.53-1.853-4.297-4.505-4.297h-.3Zm16.464 11.26c-2.157 0-4.097-.659-5.463-1.853-1.439-1.258-2.198-3.025-2.198-5.111 0-4.165 3.079-6.964 7.66-6.964 4.582 0 7.642 2.799 7.642 6.964 0 4.165-3.07 6.964-7.642 6.964Zm-.152-11.26c-2.662 0-4.522 1.766-4.522 4.296 0 2.53 1.86 4.296 4.522 4.296h.301c2.652 0 4.505-1.767 4.505-4.296 0-2.53-1.853-4.297-4.505-4.297h-.3Zm13.188 11.072V3.114h-5.31V.446h13.59v2.668h-5.31v10.884h-2.97Zm9.434 0V.446h7.68c2.559 0 4.346 1.509 4.346 3.668 0 1.26-.672 2.374-1.748 2.959 1.272.486 2.069 1.678 2.069 3.16 0 2.181-1.868 3.764-4.441 3.764H99.74Zm7.529-2.668c1.129 0 1.83-.557 1.83-1.454 0-1.17-.995-1.415-1.83-1.415h-4.56v2.869h4.56Zm-.132-5.536c1.089 0 1.641-.47 1.641-1.397 0-.792-.628-1.284-1.641-1.284h-4.428v2.68h4.428Zm17.462 8.204-1.412-3.088h-6.579l-1.412 3.088h-3.16L118.368.446h3.136l6.311 13.552h-3.216Zm-2.637-5.756-2.064-4.476-2.065 4.476h4.129Zm6.74 5.756V.446h2.969V11.33h8.832v2.668h-11.801Zm12.944 0V.446h2.968V11.33h8.832v2.668h-11.8ZM40.895 31.81V18.26h11.65v2.667h-8.681v2.963h7.626v2.667h-7.626v5.254h-2.97Zm18.949.19c-2.011 0-3.57-.508-4.632-1.508-1.023-.962-1.542-2.329-1.542-4.063v-8.17h2.97v8.02c0 1.997 1.056 3.053 3.053 3.053h.302c1.997 0 3.053-1.056 3.053-3.054V18.26h2.97v8.17c0 1.7-.546 3.105-1.578 4.064-1.075 1-2.622 1.507-4.596 1.507Zm18.206-.19-6.572-9.442v9.443h-2.97V18.259h3.597l6.459 9.274V18.26h2.97v13.552H78.05Zm5.491-11.63v-1.67h-.795v-.252h1.874v.252h-.796v1.668h-.283Zm3.912-1.92v1.92h-.282v-1.695l-.694 1.694h-.368l-.69-1.686v1.686h-.283v-1.92h.474l.686 1.674.685-1.674h.472Zm70.502-4.073a2.14 2.14 0 1 0 0-4.282 2.14 2.14 0 0 0 0 4.282ZM0 15.238c0 4.75 2.12 9.238 5.672 12.006l5.833 4.545v-5.336l-3.49-2.72c-2.51-1.956-4.01-5.132-4.01-8.495v-1.701h7.5V9.209h-7.5V4.328h7.5V0H0v15.238ZM15.61 0v4.328h7.043v4.88H15.61v4.329h7.043v1.874c0 3.274-1.436 6.4-3.841 8.362l-3.202 2.611v5.423l5.617-4.582c3.401-2.775 5.432-7.192 5.432-11.814V0H15.61Z"/></svg>